<svg width="24" height="24" viewBox="0 0 24 24" xmlns="http://www.w3.org/2000/svg"><path d="M18.81 8.056c.275 0 .5-.226.5-.5v-.604c0-.274-.225-.5-.5-.5H5.5c-.274 0-.5.226-.5.5v.604c0 .274.226.5.5.5h13.31zm-3.017-2.604h3.018c.827 0 1.5.674 1.5 1.5v.604c0 .826-.673 1.5-1.5 1.5h-.064V20.61c0 .72-.572 1.318-1.285 1.318H6.85c-.713 0-1.285-.598-1.285-1.32V9.057H5.5c-.826 0-1.5-.674-1.5-1.5v-.604c0-.826.674-1.5 1.5-1.5h3.018V4.32c0-.728.592-1.32 1.32-1.32h4.636c.726 0 1.32.592 1.32 1.32V5.45zm-1 0V4.32c0-.175-.145-.32-.32-.32H9.838c-.174 0-.32.144-.32.32V5.45h5.276zm2.953 3.604H6.566V20.61c0 .178.133.318.284.318h10.61c.152 0 .286-.14.286-.32V9.057zM8.46 11.81h1v7.42h-1v-7.42zm3.196 0h1v7.42h-1v-7.42zm3.196 0h1v7.42h-1v-7.42z" fill-rule="nonzero" fill="#505050"/></svg>