<?xml version="1.0" standalone="no"?>
<!DOCTYPE svg PUBLIC "-//W3C//DTD SVG 1.1//EN" "http://www.w3.org/Graphics/SVG/1.1/DTD/svg11.dtd" >
<svg xmlns="http://www.w3.org/2000/svg">
<metadata>Generated by IcoMoon</metadata>
<defs>
<font id="selenium-ide" horiz-adv-x="1024">
<font-face units-per-em="1024" ascent="960" descent="-64" />
<missing-glyph horiz-adv-x="1024" />
<glyph unicode="&#x20;" horiz-adv-x="512" d="" />
<glyph unicode="&#xe900;" glyph-name="caret" d="M802.361 442.084l-580.722-398.222v796.444z" />
<glyph unicode="&#xe901;" glyph-name="add" d="M490.667 469.333h-192c-11.782 0-21.333-9.551-21.333-21.333s9.551-21.333 21.333-21.333h192v-192c0-11.782 9.551-21.333 21.333-21.333s21.333 9.551 21.333 21.333v192h192c11.782 0 21.333 9.551 21.333 21.333s-9.551 21.333-21.333 21.333h-192v192c0 11.782-9.551 21.333-21.333 21.333s-21.333-9.551-21.333-21.333v-192z" />
<glyph unicode="&#xe902;" glyph-name="clear" d="M271.141 658.689c-49.277-56.288-79.141-130.001-79.141-210.689 0-176.731 143.269-320 320-320 80.688 0 154.401 29.864 210.689 79.141l-451.548 451.548zM301.311 688.859l451.548-451.548c49.277 56.288 79.141 130.001 79.141 210.689 0 176.731-143.269 320-320 320-80.688 0-154.401-29.864-210.689-79.141zM512 85.333c-200.295 0-362.667 162.371-362.667 362.667s162.371 362.667 362.667 362.667c200.295 0 362.667-162.371 362.667-362.667s-162.371-362.667-362.667-362.667z" />
<glyph unicode="&#xe903;" glyph-name="step-into" d="M585.707 233.588l-101.288 101.288c-8.331 8.331-21.839 8.331-30.17 0s-8.331-21.839 0-30.17l142.072-142.072c8.331-8.331 21.839-8.331 30.17 0l142.281 142.281c8.331 8.331 8.331 21.839 0 30.17s-21.839 8.331-30.17 0l-110.228-110.228v436.476c0 11.782-9.551 21.333-21.333 21.333h-351.040c-11.782 0-21.333-9.551-21.333-21.333s9.551-21.333 21.333-21.333h329.707v-406.412z" />
<glyph unicode="&#xe904;" glyph-name="info" d="M480 533.333v-278.153h64v278.153zM544 577.664v83.669h-64v-83.669zM149.333 448c0 200.303 162.367 362.667 362.647 362.667 200.312 0 362.686-162.358 362.686-362.667s-162.374-362.667-362.686-362.667c-200.28 0-362.647 162.364-362.647 362.667zM192 448c0-176.738 143.265-320 319.981-320 176.749 0 320.019 143.256 320.019 320s-143.27 320-320.019 320c-176.716 0-319.981-143.262-319.981-320z" />
<glyph unicode="&#xe905;" glyph-name="open" d="M438.687 789.013c6.642 1.192 13.74-0.778 18.873-5.911l59.928-59.928h217.937c45.233 0 82.133-36.901 82.133-82.133v-30.379c0-11.782-9.551-21.333-21.333-21.333s-21.333 9.551-21.333 21.333v30.379c0 21.669-17.798 39.467-39.467 39.467h-226.773c-5.658 0-11.084 2.248-15.085 6.248l-59.591 59.591h-223.85c-9.656 0-19.1-4.808-26.56-13.724-8.116-9.701-12.906-23.148-12.906-37.617v-494.65c0-14.47 4.791-27.916 12.932-37.648 7.423-8.907 16.842-13.693 26.534-13.693h507.349c11.782 0 21.333-9.551 21.333-21.333s-9.551-21.333-21.333-21.333h-507.349c-22.889 0-44.079 10.768-59.285 29.014-14.599 17.45-22.848 40.606-22.848 64.995v494.65c0 24.389 8.25 47.545 22.848 64.995 15.255 18.234 36.432 29.014 59.285 29.014h228.562zM716.386 106.347h-422.869c-49.382 0-75.857 49.352-62.354 104.071l80.768 327.223c12.702 51.474 56.349 93.848 100.669 93.848h422.869c49.35 0 75.853-49.369 62.354-104.071l-80.768-327.223c-12.702-51.474-56.349-93.848-100.669-93.848zM716.386 149.013c22.582 0 50.87 27.463 59.246 61.404l80.768 327.223c7.57 30.678-3.437 51.181-20.931 51.181h-422.869c-22.582 0-50.87-27.463-59.246-61.404l-80.768-327.223c-7.575-30.698 3.413-51.181 20.931-51.181h422.869z" />
<glyph unicode="&#xe906;" glyph-name="play-all" d="M746.667 586.667h146.219c17.673 0 32 14.327 32 32s-14.327 32-32 32h-146.219c-17.673 0-32-14.327-32-32s14.327-32 32-32zM746.667 416h146.219c17.673 0 32 14.327 32 32s-14.327 32-32 32h-146.219c-17.673 0-32-14.327-32-32s14.327-32 32-32zM746.667 245.333h146.219c17.673 0 32 14.327 32 32s-14.327 32-32 32h-146.219c-17.673 0-32-14.327-32-32s14.327-32 32-32zM149.333 659.876v-432.024l402.855 216-402.855 216.023zM138.082 714.323l469.333-251.671c15.003-8.045 15.002-29.558-0.001-37.602l-469.333-251.644c-14.212-7.62-31.414 2.676-31.414 18.801v503.315c0 16.126 17.203 26.422 31.415 18.801z" />
<glyph unicode="&#xe907;" glyph-name="play" d="M320 659.876v-432.024l402.855 216-402.855 216.023zM308.748 714.323l469.333-251.671c15.003-8.045 15.002-29.558-0.001-37.602l-469.333-251.644c-14.212-7.62-31.414 2.676-31.414 18.801v503.315c0 16.126 17.203 26.422 31.415 18.801z" />
<glyph unicode="&#xe908;" glyph-name="pause" d="M298.667 661.333v-469.333c0-23.564 19.103-42.667 42.667-42.667s42.667 19.103 42.667 42.667v469.333c0 23.564-19.103 42.667-42.667 42.667s-42.667-19.103-42.667-42.667zM597.333 661.333v-469.333c0-23.564 19.103-42.667 42.667-42.667s42.667 19.103 42.667 42.667v469.333c0 23.564-19.103 42.667-42.667 42.667s-42.667-19.103-42.667-42.667z" />
<glyph unicode="&#xe909;" glyph-name="remove" d="M542.17 448l198.248 198.248c8.331 8.331 8.331 21.839 0 30.17s-21.839 8.331-30.17 0l-198.248-198.248-198.248 198.248c-8.331 8.331-21.839 8.331-30.17 0s-8.331-21.839 0-30.17l198.248-198.248-198.248-198.248c-8.331-8.331-8.331-21.839 0-30.17s21.839-8.331 30.17 0l198.248 198.248 198.248-198.248c8.331-8.331 21.839-8.331 30.17 0s8.331 21.839 0 30.17l-198.248 198.248z" />
<glyph unicode="&#xe90a;" glyph-name="code" d="M158.17 449.722l281.86 281.86-30.17 30.17-312.030-312.030 294.89-294.89 30.17 30.17zM609.83 185.001l30.17-30.17 312.030 312.030-294.89 294.89-30.17-30.17 264.72-264.72z" />
<glyph unicode="&#xe90b;" glyph-name="save" d="M746.728 768l127.939-111.566v-571.101h-682.667v682.667h554.728zM730.738 725.333h-496.071v-597.333h597.333v509.030l-101.262 88.303zM405.333 554.667v149.333h-42.667v-192h341.333v192h-42.667v-149.333zM576 704v-85.333h42.667v85.333zM704 341.333v-192h42.667v234.667h-426.667v-234.667h42.667v192z" />
<glyph unicode="&#xe90c;" glyph-name="gauge-6" d="M960 218.159c0 30.563-3.066 60.76-9.097 90.263-5.943 28.98-14.699 57.139-26.122 84.133-11.263 26.637-25.113 52.134-41.297 76.094-16.082 23.801-34.406 46.007-54.7 66.301-20.324 20.309-42.518 38.625-66.284 54.683-23.949 16.182-49.428 30.023-76.111 41.314-27.083 11.445-55.23 20.199-84.133 26.107-29.462 6.042-59.664 9.112-90.263 9.112-30.586 0-60.788-3.071-90.261-9.114-28.907-5.909-57.070-14.667-84.115-26.103-26.688-11.293-52.167-25.134-76.116-41.316-23.766-16.058-45.959-34.375-66.278-54.678-20.299-20.299-38.623-42.505-54.704-66.304-16.186-23.962-30.036-49.459-41.301-76.102-11.442-27.038-20.204-55.202-26.119-84.125-6.032-29.506-9.098-59.702-9.098-90.265 0-11.782 9.551-21.333 21.333-21.333s21.333 9.551 21.333 21.333c0 27.687 2.775 55.021 8.233 81.718 5.347 26.144 13.268 51.602 23.613 76.051 10.189 24.097 22.718 47.162 37.36 68.839 14.555 21.541 31.143 41.643 49.513 60.014 18.395 18.382 38.49 34.965 60.002 49.5 21.666 14.64 44.715 27.16 68.851 37.373 24.447 10.337 49.907 18.254 76.051 23.599 26.668 5.469 53.999 8.247 81.703 8.247 27.717 0 55.048-2.778 81.705-8.245 26.141-5.344 51.588-13.258 76.073-23.605 24.127-10.21 47.175-22.729 68.841-37.369 21.511-14.535 41.606-31.119 60.007-49.506 18.365-18.365 34.953-38.467 49.509-60.010 14.641-21.675 27.169-44.739 37.356-68.831 10.328-24.406 18.245-49.866 23.618-76.069 5.455-26.684 8.23-54.018 8.23-81.705 0-11.782 9.551-21.333 21.333-21.333s21.333 9.551 21.333 21.333zM448 230.485c0 37.669 30.532 68.181 68.181 68.181 37.681 0 68.181-30.501 68.181-68.181s-30.501-68.181-68.181-68.181c-37.65 0-68.181 30.512-68.181 68.181zM490.667 230.485c0-14.099 11.423-25.515 25.515-25.515 14.117 0 25.515 11.398 25.515 25.515s-11.398 25.515-25.515 25.515c-14.092 0-25.515-11.416-25.515-25.515zM632.515 260.001l157.099 66.685c10.845 4.604 15.905 17.128 11.302 27.973s-17.128 15.905-27.973 11.302l-157.099-66.685c-10.845-4.604-15.905-17.128-11.302-27.973s17.128-15.905 27.973-11.302z" />
<glyph unicode="&#xe90d;" glyph-name="select" d="M426.667 533.333l103.022-383.987 280.964 280.964zM437.333 85.333h-245.333c-5.669 0-11.020 2.278-15.038 6.296s-6.296 9.368-6.296 15.038v661.333c0 5.669 2.278 11.020 6.296 15.038s9.368 6.296 15.038 6.296h661.333c5.669 0 11.020-2.278 15.038-6.296s6.296-9.368 6.296-15.038v-245.333h42.667v245.333c0 17.139-6.877 33.292-18.792 45.208s-28.069 18.792-45.208 18.792h-661.333c-17.139 0-33.292-6.877-45.208-18.792s-18.792-28.069-18.792-45.208v-661.333c0-17.139 6.877-33.292 18.792-45.208s28.069-18.792 45.208-18.792h245.333v42.667zM438.572 491.258l415.085-415.085 30.17 30.17-415.085 415.085z" />
<glyph unicode="&#xe90e;" glyph-name="gauge-5" d="M960 218.159c0 30.563-3.066 60.76-9.097 90.263-5.943 28.98-14.699 57.139-26.122 84.133-11.263 26.637-25.113 52.134-41.297 76.094-16.082 23.801-34.406 46.007-54.7 66.301-20.324 20.309-42.518 38.625-66.284 54.683-23.949 16.182-49.428 30.023-76.111 41.314-27.083 11.445-55.23 20.199-84.133 26.107-29.462 6.042-59.664 9.112-90.263 9.112-30.586 0-60.788-3.071-90.261-9.114-28.907-5.909-57.070-14.667-84.115-26.103-26.688-11.293-52.167-25.134-76.116-41.316-23.766-16.058-45.959-34.375-66.278-54.678-20.299-20.299-38.623-42.505-54.704-66.304-16.186-23.962-30.036-49.459-41.301-76.102-11.442-27.038-20.204-55.202-26.119-84.125-6.032-29.506-9.098-59.702-9.098-90.265 0-11.782 9.551-21.333 21.333-21.333s21.333 9.551 21.333 21.333c0 27.687 2.775 55.021 8.233 81.718 5.347 26.144 13.268 51.602 23.613 76.051 10.189 24.097 22.718 47.162 37.36 68.839 14.555 21.541 31.143 41.643 49.513 60.014 18.395 18.382 38.49 34.965 60.002 49.5 21.666 14.64 44.715 27.16 68.851 37.373 24.447 10.337 49.907 18.254 76.051 23.599 26.668 5.469 53.999 8.247 81.703 8.247 27.717 0 55.048-2.778 81.705-8.245 26.141-5.344 51.588-13.258 76.073-23.605 24.127-10.21 47.175-22.729 68.841-37.369 21.511-14.535 41.606-31.119 60.007-49.506 18.365-18.365 34.953-38.467 49.509-60.010 14.641-21.675 27.169-44.739 37.356-68.831 10.328-24.406 18.245-49.866 23.618-76.069 5.455-26.684 8.23-54.018 8.23-81.705 0-11.782 9.551-21.333 21.333-21.333s21.333 9.551 21.333 21.333zM448 230.485c0 37.669 30.532 68.181 68.181 68.181 37.681 0 68.181-30.501 68.181-68.181s-30.501-68.181-68.181-68.181c-37.65 0-68.181 30.512-68.181 68.181zM490.667 230.485c0-14.099 11.423-25.515 25.515-25.515 14.117 0 25.515 11.398 25.515 25.515s-11.398 25.515-25.515 25.515c-14.092 0-25.515-11.416-25.515-25.515zM610.77 303.266l120.68 120.68c8.331 8.331 8.331 21.839 0 30.17s-21.839 8.331-30.17 0l-120.68-120.68c-8.331-8.331-8.331-21.839 0-30.17s21.839-8.331 30.17 0z" />
<glyph unicode="&#xe90f;" glyph-name="stop" d="M256 704v-512h512v512h-512zM256 746.667h512c23.564 0 42.667-19.103 42.667-42.667v-512c0-23.564-19.103-42.667-42.667-42.667h-512c-23.564 0-42.667 19.103-42.667 42.667v512c0 23.564 19.103 42.667 42.667 42.667z" />
<glyph unicode="&#xe910;" glyph-name="check" horiz-adv-x="1317" d="M1162.436 960l-725.72-738.835-295.426 298.127-141.291-155.544 436.716-427.747 879.855 881.418z" />
<glyph unicode="&#xe911;" glyph-name="more" d="M576 661.333c0-35.346-28.654-64-64-64s-64 28.654-64 64c0 35.346 28.654 64 64 64s64-28.654 64-64zM576 448c0-35.346-28.654-64-64-64s-64 28.654-64 64c0 35.346 28.654 64 64 64s64-28.654 64-64zM576 234.667c0-35.346-28.654-64-64-64s-64 28.654-64 64c0 35.346 28.654 64 64 64s64-28.654 64-64z" />
<glyph unicode="&#xe912;" glyph-name="gauge-4" d="M960 218.159c0 30.563-3.066 60.76-9.097 90.263-5.943 28.98-14.699 57.139-26.122 84.133-11.263 26.637-25.113 52.134-41.297 76.094-16.082 23.801-34.406 46.007-54.7 66.301-20.324 20.309-42.518 38.625-66.284 54.683-23.949 16.182-49.428 30.023-76.111 41.314-27.083 11.445-55.23 20.199-84.133 26.107-29.462 6.042-59.664 9.112-90.263 9.112-30.586 0-60.788-3.071-90.261-9.114-28.907-5.909-57.070-14.667-84.115-26.103-26.688-11.293-52.167-25.134-76.116-41.316-23.766-16.058-45.959-34.375-66.278-54.678-20.299-20.299-38.623-42.505-54.704-66.304-16.186-23.962-30.036-49.459-41.301-76.102-11.442-27.038-20.204-55.202-26.119-84.125-6.032-29.506-9.098-59.702-9.098-90.265 0-11.782 9.551-21.333 21.333-21.333s21.333 9.551 21.333 21.333c0 27.687 2.775 55.021 8.233 81.718 5.347 26.144 13.268 51.602 23.613 76.051 10.189 24.097 22.718 47.162 37.36 68.839 14.555 21.541 31.143 41.643 49.513 60.014 18.395 18.382 38.49 34.965 60.002 49.5 21.666 14.64 44.715 27.16 68.851 37.373 24.447 10.337 49.907 18.254 76.051 23.599 26.668 5.469 53.999 8.247 81.703 8.247 27.717 0 55.048-2.778 81.705-8.245 26.141-5.344 51.588-13.258 76.073-23.605 24.127-10.21 47.175-22.729 68.841-37.369 21.511-14.535 41.606-31.119 60.007-49.506 18.365-18.365 34.953-38.467 49.509-60.010 14.641-21.675 27.169-44.739 37.356-68.831 10.328-24.406 18.245-49.866 23.618-76.069 5.455-26.684 8.23-54.018 8.23-81.705 0-11.782 9.551-21.333 21.333-21.333s21.333 9.551 21.333 21.333zM448 230.485c0 37.669 30.532 68.181 68.181 68.181 37.681 0 68.181-30.501 68.181-68.181s-30.501-68.181-68.181-68.181c-37.65 0-68.181 30.512-68.181 68.181zM490.667 230.485c0-14.099 11.423-25.515 25.515-25.515 14.117 0 25.515 11.398 25.515 25.515s-11.398 25.515-25.515 25.515c-14.092 0-25.515-11.416-25.515-25.515zM568.579 338.437l58.371 160.374c4.030 11.072-1.679 23.313-12.75 27.343s-23.313-1.679-27.343-12.75l-58.371-160.374c-4.030-11.072 1.679-23.313 12.75-27.343s23.314 1.679 27.343 12.75z" />
<glyph unicode="&#xe913;" glyph-name="gauge-3" d="M960 218.159c0 30.563-3.066 60.76-9.097 90.263-5.943 28.98-14.699 57.139-26.122 84.133-11.263 26.637-25.113 52.134-41.297 76.094-16.082 23.801-34.406 46.007-54.7 66.301-20.324 20.309-42.518 38.625-66.284 54.683-23.949 16.182-49.428 30.023-76.111 41.314-27.083 11.445-55.23 20.199-84.133 26.107-29.462 6.042-59.664 9.112-90.263 9.112-30.586 0-60.788-3.071-90.261-9.114-28.907-5.909-57.070-14.667-84.115-26.103-26.688-11.293-52.167-25.134-76.116-41.316-23.766-16.058-45.959-34.375-66.278-54.678-20.299-20.299-38.623-42.505-54.704-66.304-16.186-23.962-30.036-49.459-41.301-76.102-11.442-27.038-20.204-55.202-26.119-84.125-6.032-29.506-9.098-59.702-9.098-90.265 0-11.782 9.551-21.333 21.333-21.333s21.333 9.551 21.333 21.333c0 27.687 2.775 55.021 8.233 81.718 5.347 26.144 13.268 51.602 23.613 76.051 10.189 24.097 22.718 47.162 37.36 68.839 14.555 21.541 31.143 41.643 49.513 60.014 18.395 18.382 38.49 34.965 60.002 49.5 21.666 14.64 44.715 27.16 68.851 37.373 24.447 10.337 49.907 18.254 76.051 23.599 26.668 5.469 53.999 8.247 81.703 8.247 27.717 0 55.048-2.778 81.705-8.245 26.141-5.344 51.588-13.258 76.073-23.605 24.127-10.21 47.175-22.729 68.841-37.369 21.511-14.535 41.606-31.119 60.007-49.506 18.365-18.365 34.953-38.467 49.509-60.010 14.641-21.675 27.169-44.739 37.356-68.831 10.328-24.406 18.245-49.866 23.618-76.069 5.455-26.684 8.23-54.018 8.23-81.705 0-11.782 9.551-21.333 21.333-21.333s21.333 9.551 21.333 21.333zM448 230.485c0 37.669 30.532 68.181 68.181 68.181 37.681 0 68.181-30.501 68.181-68.181s-30.501-68.181-68.181-68.181c-37.65 0-68.181 30.512-68.181 68.181zM490.667 230.485c0-14.099 11.423-25.515 25.515-25.515 14.117 0 25.515 11.398 25.515 25.515s-11.398 25.515-25.515 25.515c-14.092 0-25.515-11.416-25.515-25.515zM487.198 351.675l-61.161 159.331c-4.222 11-16.562 16.494-27.562 12.271s-16.494-16.562-12.271-27.562l61.161-159.331c4.222-11 16.562-16.494 27.562-12.271s16.494 16.562 12.271 27.562z" />
<glyph unicode="&#xe914;" glyph-name="gauge-2" d="M960 218.159c0 30.563-3.066 60.76-9.097 90.263-5.943 28.98-14.699 57.139-26.122 84.133-11.263 26.637-25.113 52.134-41.297 76.094-16.082 23.801-34.406 46.007-54.7 66.301-20.324 20.309-42.518 38.625-66.284 54.683-23.949 16.182-49.428 30.023-76.111 41.314-27.083 11.445-55.23 20.199-84.133 26.107-29.462 6.042-59.664 9.112-90.263 9.112-30.586 0-60.788-3.071-90.261-9.114-28.907-5.909-57.070-14.667-84.115-26.103-26.688-11.293-52.167-25.134-76.116-41.316-23.766-16.058-45.959-34.375-66.278-54.678-20.299-20.299-38.623-42.505-54.704-66.304-16.186-23.962-30.036-49.459-41.301-76.102-11.442-27.038-20.204-55.202-26.119-84.125-6.032-29.506-9.098-59.702-9.098-90.265 0-11.782 9.551-21.333 21.333-21.333s21.333 9.551 21.333 21.333c0 27.687 2.775 55.021 8.233 81.718 5.347 26.144 13.268 51.602 23.613 76.051 10.189 24.097 22.718 47.162 37.36 68.839 14.555 21.541 31.143 41.643 49.513 60.014 18.395 18.382 38.49 34.965 60.002 49.5 21.666 14.64 44.715 27.16 68.851 37.373 24.447 10.337 49.907 18.254 76.051 23.599 26.668 5.469 53.999 8.247 81.703 8.247 27.717 0 55.048-2.778 81.705-8.245 26.141-5.344 51.588-13.258 76.073-23.605 24.127-10.21 47.175-22.729 68.841-37.369 21.511-14.535 41.606-31.119 60.007-49.506 18.365-18.365 34.953-38.467 49.509-60.010 14.641-21.675 27.169-44.739 37.356-68.831 10.328-24.406 18.245-49.866 23.618-76.069 5.455-26.684 8.23-54.018 8.23-81.705 0-11.782 9.551-21.333 21.333-21.333s21.333 9.551 21.333 21.333zM448 230.485c0 37.669 30.532 68.181 68.181 68.181 37.681 0 68.181-30.501 68.181-68.181s-30.501-68.181-68.181-68.181c-37.65 0-68.181 30.512-68.181 68.181zM490.667 230.485c0-14.099 11.423-25.515 25.515-25.515 14.117 0 25.515 11.398 25.515 25.515s-11.398 25.515-25.515 25.515c-14.092 0-25.515-11.416-25.515-25.515zM425.967 320.46l-128.804 111.967c-8.892 7.73-22.367 6.787-30.096-2.105s-6.787-22.367 2.105-30.096l128.804-111.967c8.892-7.73 22.367-6.787 30.096 2.105s6.787 22.367-2.105 30.096z" />
<glyph unicode="&#xe915;" glyph-name="gauge-1" d="M960 218.159c0 30.563-3.066 60.76-9.097 90.263-5.943 28.98-14.699 57.139-26.122 84.133-11.263 26.637-25.113 52.134-41.297 76.094-16.082 23.801-34.406 46.007-54.7 66.301-20.324 20.309-42.518 38.625-66.284 54.683-23.949 16.182-49.428 30.023-76.111 41.314-27.083 11.445-55.23 20.199-84.133 26.107-29.462 6.042-59.664 9.112-90.263 9.112-30.586 0-60.788-3.071-90.261-9.114-28.907-5.909-57.070-14.667-84.115-26.103-26.688-11.293-52.167-25.134-76.116-41.316-23.766-16.058-45.959-34.375-66.278-54.678-20.299-20.299-38.623-42.505-54.704-66.304-16.186-23.962-30.036-49.459-41.301-76.102-11.442-27.038-20.204-55.202-26.119-84.125-6.032-29.506-9.098-59.702-9.098-90.265 0-11.782 9.551-21.333 21.333-21.333s21.333 9.551 21.333 21.333c0 27.687 2.775 55.021 8.233 81.718 5.347 26.144 13.268 51.602 23.613 76.051 10.189 24.097 22.718 47.162 37.36 68.839 14.555 21.541 31.143 41.643 49.513 60.014 18.395 18.382 38.49 34.965 60.002 49.5 21.666 14.64 44.715 27.16 68.851 37.373 24.447 10.337 49.907 18.254 76.051 23.599 26.668 5.469 53.999 8.247 81.703 8.247 27.717 0 55.048-2.778 81.705-8.245 26.141-5.344 51.588-13.258 76.073-23.605 24.127-10.21 47.175-22.729 68.841-37.369 21.511-14.535 41.606-31.119 60.007-49.506 18.365-18.365 34.953-38.467 49.509-60.010 14.641-21.675 27.169-44.739 37.356-68.831 10.328-24.406 18.245-49.866 23.618-76.069 5.455-26.684 8.23-54.018 8.23-81.705 0-11.782 9.551-21.333 21.333-21.333s21.333 9.551 21.333 21.333zM448 230.485c0 37.669 30.532 68.181 68.181 68.181 37.681 0 68.181-30.501 68.181-68.181s-30.501-68.181-68.181-68.181c-37.65 0-68.181 30.512-68.181 68.181zM490.667 230.485c0-14.099 11.423-25.515 25.515-25.515 14.117 0 25.515 11.398 25.515 25.515s-11.398 25.515-25.515 25.515c-14.092 0-25.515-11.416-25.515-25.515zM395.648 279.955l-162.314 52.739c-11.205 3.641-23.241-2.491-26.882-13.697s2.491-23.241 13.697-26.882l162.314-52.739c11.205-3.641 23.241 2.491 26.882 13.697s-2.491 23.241-13.697 26.882z" />
<glyph unicode="&#xe916;" glyph-name="search" d="M664.858 305.843l247.080-247.080-30.17-30.17-248.41 248.41c-53.207-42.419-120.626-67.77-193.977-67.77-171.967 0-311.381 139.4-311.381 311.381s139.414 311.381 311.381 311.381c171.995 0 311.381-139.386 311.381-311.381 0-83.274-32.674-158.904-85.904-214.772zM170.667 520.614c0-148.416 120.311-268.715 268.715-268.715 148.431 0 268.715 120.283 268.715 268.715s-120.283 268.715-268.715 268.715c-148.404 0-268.715-120.299-268.715-268.715z" />
<glyph unicode="&#xe917;" glyph-name="step-down" d="M644.885 354.436c8.333 8.33 8.335 21.837 0.005 30.17s-21.837 8.335-30.17 0.005l-121.472-121.429c-8.334-8.331-8.335-21.84-0.003-30.173l121.643-121.643c8.331-8.331 21.839-8.331 30.17 0s8.331 21.839 0 30.17l-106.555 106.555 106.382 106.344zM128.666 661.338c0 70.69 57.296 127.986 127.986 127.986 70.694 0 128.014-57.3 128.014-127.986s-57.32-127.986-128.014-127.986c-70.69 0-127.986 57.296-127.986 127.986zM171.332 661.338c0-47.126 38.194-85.32 85.32-85.32 47.133 0 85.347 38.201 85.347 85.32s-38.214 85.32-85.347 85.32c-47.126 0-85.32-38.194-85.32-85.32zM128 264.231c0 70.69 57.296 127.986 127.986 127.986 70.694 0 128.014-57.3 128.014-127.986s-57.32-127.986-128.014-127.986c-70.69 0-127.986 57.296-127.986 127.986zM170.667 264.231c0-47.126 38.194-85.32 85.32-85.32 47.133 0 85.347 38.201 85.347 85.32s-38.214 85.32-85.347 85.32c-47.126 0-85.32-38.194-85.32-85.32zM807.697 269.406h-291.072c-11.782 0-21.333-9.551-21.333-21.333s9.551-21.333 21.333-21.333h312.405c11.782 0 21.333 9.551 21.333 21.333v437.717c0 11.782-9.551 21.333-21.333 21.333h-312.405c-11.782 0-21.333-9.551-21.333-21.333s9.551-21.333 21.333-21.333h291.072v-395.051z" />
<glyph unicode="&#xe918;" glyph-name="caret-wide" d="M512 335.070l-256 240.93h512z" />
<glyph unicode="&#xe919;" glyph-name="pencil" horiz-adv-x="853" d="M810.667 741.12l-90.88 90.88c-15.525 15.979-37.218 25.894-61.227 25.894s-45.701-9.915-61.207-25.873l-0.020-0.020-119.040-121.173-361.813-361.813-94.72-242.347c-2.135-5.3-3.374-11.446-3.374-17.881 0-27.099 21.968-49.067 49.067-49.067 6.435 0 12.581 1.239 18.211 3.491l-0.331-0.117 242.347 94.72 361.813 361.813 121.173 119.040c15.979 15.525 25.894 37.218 25.894 61.227s-9.915 45.701-25.873 61.207l-0.020 0.020zM69.973 81.92c-0.778-0.311-1.681-0.492-2.625-0.492-4.006 0-7.253 3.247-7.253 7.253 0 0.944 0.18 1.847 0.509 2.674l-0.017-0.049 19.627 52.48 42.667-42.667zM165.973 118.187l-69.12 69.12 49.493 132.693 152.32-152.32zM327.68 197.973l-151.040 151.040 301.653 301.653 151.040-151.040zM508.587 680.96l120.747 120.747c7.712 7.668 18.343 12.407 30.080 12.407s22.368-4.74 30.082-12.409l90.451-90.451c7.668-7.712 12.407-18.343 12.407-30.080s-4.74-22.368-12.409-30.082l-120.745-120.745z" />
</font>
</defs>
</svg>
