<?xml version="1.0" encoding="UTF-8"?>
<svg width="32px" height="32px" viewBox="0 0 32 32" version="1.1" xmlns="http://www.w3.org/2000/svg" xmlns:xlink="http://www.w3.org/1999/xlink">
    <!-- Generator: Sketch 51.3 (57544) - http://www.bohemiancoding.com/sketch -->
    <title>selenume_blue_white32@3x</title>
    <desc>Created with Sketch.</desc>
    <defs></defs>
    <g id="selenume_blue_white32" stroke="none" stroke-width="1" fill="none" fill-rule="evenodd">
        <rect id="Rectangle-8" fill="#FFFFFF" x="1" y="2" width="29" height="28"></rect>
        <g id="Group" fill="#19468D">
            <path d="M20.0843,20.3165 C18.5303,20.3165 17.8343,21.4425 17.6813,22.3985 C17.6733,22.4465 17.7133,22.4895 17.7603,22.4895 L22.4123,22.4895 C22.4593,22.4895 22.4973,22.4495 22.4923,22.4025 C22.3993,21.4805 21.7373,20.3165 20.0843,20.3165" id="Fill-1"></path>
            <path d="M27.8894701,10.3980672 C27.8894701,10.7293405 27.5210425,10.9301122 27.2429649,10.7494177 L24.4561661,8.94146838 L24.4561661,10.1310408 C24.4561661,10.4231637 24.219248,10.6610781 23.927116,10.6610781 L16.9691539,10.6610781 C16.6770219,10.6610781 16.4401039,10.4231637 16.4401039,10.1310408 L16.4401039,4.92703792 C16.4401039,4.63491507 16.6770219,4.39700059 16.9691539,4.39700059 L23.927116,4.39700059 C24.219248,4.39700059 24.4561661,4.63491507 24.4561661,4.92703792 L24.4561661,6.11560648 L27.2429649,4.30966489 C27.5210425,4.12796649 27.8894701,4.32773434 27.8894701,4.66001153 L27.8894701,10.3980672 Z M25.0936363,24.0676095 C25.0936363,24.2111613 24.9761812,24.3276089 24.8326249,24.3276089 L17.8716511,24.3276089 C17.8234644,24.3276089 17.7843127,24.3717786 17.7923438,24.41896 C17.991114,25.6215826 18.9809496,26.6093794 20.6112671,26.6093794 C21.3601691,26.6093794 22.3720903,26.314245 23.0286344,25.8123157 C23.1480973,25.7199607 23.3167509,25.746061 23.4020815,25.8695356 L24.2493647,27.1103048 C24.3266643,27.2237409 24.301567,27.3763274 24.1931469,27.4636631 C23.2123463,28.2547036 21.7597174,28.6682934 20.3261623,28.6682934 C17.3295505,28.6682934 15.06879,26.6505376 15.06879,23.4923985 C15.06879,20.6394324 17.1679242,18.3375847 20.1625282,18.3375847 C23.0968989,18.3375847 25.0936363,20.5380427 25.0936363,23.7564133 L25.0936363,24.0676095 Z M8.45616609,28.6612664 C6.03679102,28.6612664 4.26492503,27.8872914 3.03917525,26.7348617 C2.93175902,26.6344759 2.91971234,26.4678354 3.0040391,26.3483762 L4.18461383,24.6950211 C4.28801451,24.5484578 4.49581975,24.5283806 4.62732935,24.6498475 C5.56094712,25.5141697 6.91921039,26.1998051 8.59470292,26.1998051 C10.1447092,26.1998051 10.8986306,25.4850578 10.8986306,24.7291523 C10.8986306,22.3861464 3.27408553,23.9953317 3.27408553,19.0111738 C3.27408553,16.8077042 5.18047278,14.9806816 8.29755146,14.9806816 C10.2932849,14.9806816 11.9677736,15.5518771 13.2527529,16.6440753 C13.3712119,16.745465 13.3872741,16.923148 13.2929085,17.0476264 L12.082217,18.64075 C11.981828,18.7722555 11.790085,18.7973519 11.6615871,18.6919468 C10.6195492,17.838667 9.29441431,17.4421429 8.03854782,17.4421429 C6.82785639,17.4421429 6.15324226,17.9792072 6.15324226,18.7722555 C6.15324226,20.8783508 13.7577096,19.4679295 13.7577096,24.411933 C13.7577096,26.8352476 12.0310186,28.6612664 8.45616609,28.6612664 Z M30.712409,0.0001 L1.28839096,0.0001 C0.576632902,0.0001 0.0004,0.576314826 0.0004,1.28805056 L0.0004,30.7121494 C0.0004,31.4228813 0.576632902,32.0001 1.28839096,32.0001 L30.712409,32.0001 C31.4241671,32.0001 32.0004,31.4228813 32.0004,30.7121494 L32.0004,1.28805056 C32.0004,0.576314826 31.4241671,0.0001 30.712409,0.0001 Z" id="Fill-3"></path>
        </g>
    </g>
</svg>