<svg width="24" height="24" viewBox="0 0 24 24" xmlns="http://www.w3.org/2000/svg"><g fill-rule="nonzero" fill="#505050"><path d="M12.58 12.382l3.033-3.032c.195-.195.512-.195.707 0 .195.195.195.512 0 .707l-3.032 3.032c.11.215.17.46.17.72 0 .882-.714 1.597-1.597 1.597-.882 0-1.597-.715-1.597-1.598 0-.884.715-1.6 1.598-1.6.26 0 .505.062.72.172zm-1.317 1.427c0 .33.268.597.598.597.332 0 .6-.267.6-.598 0-.332-.268-.6-.6-.6-.33 0-.597.268-.597.6z"/><path d="M20.784 14.794c-.203 2.062-1.112 3.966-2.568 5.422-.195.196-.195.512 0 .707.196.196.512.196.707 0 1.847-1.847 2.904-4.345 2.904-7.01s-1.057-5.163-2.904-7.01C17.076 5.057 14.577 4 11.913 4 9.25 4 6.752 5.056 4.904 6.903 3.056 8.75 2 11.25 2 13.913c0 2.664 1.057 5.163 2.903 7.01.195.196.512.196.707 0 .196-.195.196-.51 0-.707-1.348-1.35-2.228-3.083-2.51-4.97l1.59-.137c.274-.024.478-.267.454-.542-.024-.275-.266-.48-.54-.455l-1.598.138c-.004-.11-.006-.223-.006-.336 0-.793.104-1.57.303-2.312l1.478.5c.262.088.546-.052.635-.314.088-.26-.052-.545-.314-.634l-1.485-.502c.325-.826.772-1.6 1.328-2.295L6.07 9.383c.204.186.52.17.707-.034.185-.205.17-.52-.034-.707L5.61 7.61c.63-.63 1.345-1.157 2.12-1.57l.61 1.368c.114.252.41.365.662.253.252-.112.365-.408.252-.66l-.617-1.38C9.45 5.3 10.31 5.1 11.2 5.03l.013 1.48c.002.277.228.5.504.497.276-.002.498-.228.496-.504L12.2 5.005c.894.03 1.764.19 2.587.47l-.583 1.362c-.11.254.01.548.263.656.254.11.548-.01.656-.263l.592-1.382c.793.375 1.53.867 2.187 1.463l-1.088 1.024c-.2.19-.21.505-.022.707.19.202.505.212.707.023l1.105-1.04c.588.668 1.07 1.416 1.434 2.22l-1.435.51c-.26.09-.396.377-.304.638.094.26.38.397.64.304l1.46-.52c.267.836.414 1.717.426 2.62l-1.55-.11c-.275-.018-.514.19-.533.465-.02.274.188.513.463.533l1.578.11z"/></g></svg>