<svg width="24" height="24" viewBox="0 0 24 24" xmlns="http://www.w3.org/2000/svg"><g fill-rule="nonzero" fill="#505050"><path d="M4.067 5.552c-.252-.146-.567.036-.567.327v11.96c0 .29.315.473.567.328l10.358-5.98c.252-.146.252-.51 0-.655L4.067 5.553zm.5-.866l10.36 5.98c.917.53.917 1.857-.002 2.387l-10.36 5.98C3.65 19.564 2.5 18.9 2.5 17.84V5.88c0-1.062 1.15-1.725 2.067-1.194z"/><path d="M18.5 8.75h3.427c.414 0 .75-.336.75-.75s-.336-.75-.75-.75H18.5c-.414 0-.75.336-.75.75s.336.75.75.75z" fill-opacity=".42"/><path d="M18.5 12.75h3.427c.414 0 .75-.336.75-.75s-.336-.75-.75-.75H18.5c-.414 0-.75.336-.75.75s.336.75.75.75z"/><path d="M18.5 16.75h3.427c.414 0 .75-.336.75-.75s-.336-.75-.75-.75H18.5c-.414 0-.75.336-.75.75s.336.75.75.75z" fill-opacity=".42"/></g></svg>