<svg width="24" height="24" viewBox="0 0 24 24" xmlns="http://www.w3.org/2000/svg"><path d="M13.69 13.906v5.775h-1v-7.57h7.393v1h-5.776l7.125 7.125-.707.707-7.036-7.036zM10.25 20.5v1H4.5c-.402 0-.78-.16-1.06-.44S3 20.402 3 20V4.5c0-.402.16-.78.44-1.06S4.098 3 4.5 3H20c.402 0 .78.16 1.06.44s.44.658.44 1.06v5.75h-1V4.5c0-.133-.053-.258-.148-.352C20.258 4.053 20.132 4 20 4H4.5c-.133 0-.258.053-.352.148-.095.094-.148.22-.148.352V20c0 .133.053.258.148.352.094.095.22.148.352.148h5.75z" fill-rule="nonzero" fill="#505050"/></svg>